<?xml version="1.0" standalone="no"?>
<!DOCTYPE svg PUBLIC "-//W3C//DTD SVG 20010904//EN"
 "http://www.w3.org/TR/2001/REC-SVG-20010904/DTD/svg10.dtd">
<svg version="1.0" xmlns="http://www.w3.org/2000/svg"
 width="800.000000pt" height="800.000000pt" viewBox="0 0 800.000000 800.000000"
 preserveAspectRatio="xMidYMid meet">

<g transform="translate(0.000000,800.000000) scale(0.100000,-0.100000)"
fill="#000000" stroke="none">
<path d="M0 4000 l0 -4000 4000 0 4000 0 0 4000 0 4000 -4000 0 -4000 0 0
-4000z m4014 2581 c39 -19 80 -49 101 -73 42 -49 41 -48 337 -698 127 -278
273 -597 325 -709 51 -113 90 -207 86 -211 -4 -4 -73 -53 -153 -110 -80 -57
-202 -146 -272 -197 -70 -51 -131 -93 -135 -93 -4 0 -82 163 -173 363 -90 199
-184 405 -208 457 l-44 94 -15 -34 c-8 -19 -47 -116 -88 -215 -40 -99 -96
-236 -125 -305 -28 -69 -123 -303 -212 -520 -88 -217 -181 -446 -207 -507
l-46 -113 -525 -379 c-289 -208 -526 -378 -528 -377 -1 2 41 108 94 237 53
129 124 304 159 389 53 131 317 776 857 2095 60 149 155 380 210 515 66 160
114 263 139 297 96 128 273 168 423 94z m2421 -789 c-600 -594 -1337 -1317
-1346 -1320 -5 -2 -9 -11 -9 -19 0 -9 106 -248 236 -532 538 -1177 584 -1279
594 -1331 19 -103 -24 -235 -100 -304 -22 -19 -63 -48 -92 -63 -47 -25 -64
-28 -148 -28 -89 0 -99 2 -158 34 -85 47 -128 98 -186 227 -64 141 -462 1012
-578 1264 -49 107 -93 199 -98 203 -7 8 -126 -106 -900 -868 -764 -752 -816
-802 -935 -895 -257 -202 -481 -254 -665 -154 -60 33 -83 67 -88 129 -11 131
158 398 369 586 105 93 385 310 1257 973 192 145 927 706 1037 791 44 34 127
97 185 141 58 44 278 213 490 374 212 162 574 438 805 614 231 176 465 355
520 397 55 43 102 78 105 78 3 0 -130 -133 -295 -297z"/>
</g>
</svg>
